<svg width="72" height="64" viewBox="0 0 72 64" fill="none" xmlns="http://www.w3.org/2000/svg">
<g opacity="0.7">
<path fill-rule="evenodd" clip-rule="evenodd" d="M39.9909 83.5198C35.2943 86.4255 29.1313 84.9736 26.2256 80.2769L6.00026 47.5849C3.09457 42.8883 4.54648 36.7253 9.24316 33.8196L13.5061 31.1823L20.8015 26.6689L28.0969 22.1555L34.7084 18.0652C38.3598 15.8061 43.1512 16.9349 45.4102 20.5863L66.8065 55.1709C69.7122 59.8676 68.2603 66.0305 63.5636 68.9362L39.9909 83.5198Z" fill="#2FDBBC"/>
<path d="M13.5061 31.1823L9.24316 33.8196C4.54648 36.7253 3.09458 42.8883 6.00026 47.5849L26.2256 80.2769C29.1313 84.9736 35.2943 86.4255 39.9909 83.5198L63.5636 68.9362C68.2603 66.0305 69.7122 59.8676 66.8065 55.1709L45.4102 20.5863C43.1512 16.9349 38.3598 15.8061 34.7084 18.0652V18.0652M13.5061 31.1823C11.1411 26.3406 8.10916 15.7328 14.9007 12.0355C21.6923 8.33815 26.528 17.2416 28.0969 22.1555M13.5061 31.1823L20.8015 26.6689M28.0969 22.1555L20.8015 26.6689M28.0969 22.1555L34.7084 18.0652M20.8015 26.6689C16.7236 20.2045 10.0961 6.47793 16.2092 3.28687C22.3224 0.0958037 31.0892 11.8094 34.7084 18.0652" stroke="#2FDBBC" stroke-width="2" stroke-linecap="round" stroke-linejoin="round"/>
</g>
</svg>
