<svg width="210" height="301" viewBox="0 0 210 301" fill="none" xmlns="http://www.w3.org/2000/svg">
<path opacity="0.7" d="M116.577 83.7178V151.816" stroke="#A64CED" stroke-width="163.436" stroke-linecap="round"/>
<path d="M141.773 71.4601C139.73 79.6319 126.11 89.8466 115.896 89.8466" stroke="black" stroke-width="2.72393" stroke-linecap="round" stroke-linejoin="round"/>
<path d="M165.237 117.086C162.74 126.62 155.022 142.827 144.126 131.386C130.507 117.086 116.206 95.9755 101.906 94.6135C87.605 93.2515 79.4334 98.0184 81.4761 103.466C82.8418 107.108 89.0773 107.504 95.0957 107.298M103.267 106.871C101.01 106.946 98.0797 107.196 95.0957 107.298M110.077 116.405C107.353 117.358 103.948 117.393 101.906 117.358M95.0957 107.298C84.881 108.914 86.243 117.086 101.906 117.358M101.906 117.358C92.3718 119.129 95.0957 125.939 103.267 127.364M108.715 127.301C106.575 127.678 104.76 127.66 103.267 127.364M103.267 127.364C98.2415 130.663 99.6269 135.836 106.672 136.464M112.12 136.153C110.037 136.521 108.218 136.602 106.672 136.464M106.672 136.464C122.335 170.202 159.108 183.822 185.666 157.945" stroke="black" stroke-width="2.72393" stroke-linecap="round"/>
<circle cx="95.4662" cy="66.6933" r="3.40491" fill="black"/>
<circle cx="124.068" cy="61.2454" r="3.40491" fill="black"/>
<path d="M113.853 230.81V324.785H56.6504L62.8951 319.321C65.8507 316.735 67.5461 312.999 67.5461 309.071V214.466" stroke="black" stroke-width="2.72393" stroke-linecap="round" stroke-linejoin="round"/>
<path d="M119.301 230.81V324.785H176.503L170.259 319.321C167.303 316.735 165.607 312.999 165.607 309.071V214.466" stroke="black" stroke-width="2.72393" stroke-linecap="round" stroke-linejoin="round"/>
<path d="M50.3292 71.871C48.811 80.0733 48.1817 88.3947 47.0227 96.6538" stroke="white" stroke-width="2.72393" stroke-miterlimit="1.5" stroke-linecap="round" stroke-linejoin="round"/>
<path d="M71.8329 63.2884C64.934 74.8082 59.1815 87.27 54.1018 99.6941" stroke="white" stroke-width="2.72393" stroke-miterlimit="1.5" stroke-linecap="round" stroke-linejoin="round"/>
<path d="M84.2103 83.2776C76.2878 87.9582 67.2362 97.877 60.4208 104.504" stroke="white" stroke-width="2.72393" stroke-miterlimit="1.5" stroke-linecap="round" stroke-linejoin="round"/>
<rect opacity="0.7" x="7.61963" y="110.38" width="50.3926" height="93.9755" rx="13.6196" transform="rotate(-15 7.61963 110.38)" fill="#2FDBBC"/>
<rect opacity="0.7" x="14.292" y="114.232" width="14.1886" height="21.0342" rx="7.09432" transform="rotate(-15 14.292 114.232)" fill="#2FDBBC"/>
<path d="M49.3689 141.961C47.8741 135.283 21.2394 134.713 13.0677 148.048C4.89589 161.383 9.19055 181.966 22.8105 186.177C36.4305 190.388 52.7739 185.475 53.4549 179.159C53.9996 174.106 42.3498 174.718 36.221 174.718C43.0308 174.016 54.6075 174.246 53.4549 168.631C52.3022 163.017 39.1542 164.654 33.0254 165.122C40.2892 163.952 54.6075 163.488 53.4549 156.7C52.3022 149.912 38.4909 152.493 31.4541 153.663C39.1719 151.557 51.2026 150.153 49.3689 141.961Z" fill="#BE7FEF" stroke="black" stroke-width="2.72393" stroke-linecap="round" stroke-linejoin="round"/>
</svg>
