<svg width="93" height="86" viewBox="0 0 93 86" fill="none" xmlns="http://www.w3.org/2000/svg">
<g opacity="0.7">
<path fill-rule="evenodd" clip-rule="evenodd" d="M52.7643 120.321C57.9212 122.298 63.7043 119.72 65.6811 114.563L87.6778 57.1809C89.6547 52.024 87.0767 46.2409 81.9198 44.2641L71.7196 40.354L60.5552 36.0743L49.3909 31.7946L39.2732 27.9161L38.4929 27.617C33.336 25.6402 27.5529 28.2182 25.5761 33.3751L3.57936 90.7574C1.60253 95.9143 4.1805 101.697 9.33743 103.674L52.7643 120.321Z" fill="#FFAA4C"/>
<path d="M71.7196 40.354L81.9198 44.2641C87.0767 46.2409 89.6547 52.024 87.6778 57.1809L65.6811 114.563C63.7043 119.72 57.9212 122.298 52.7643 120.321L9.33743 103.674C4.1805 101.697 1.60253 95.9143 3.57936 90.7574L25.5761 33.3751C27.5529 28.2182 33.336 25.6402 38.4929 27.617L39.2732 27.9161M71.7196 40.354C73.6966 33.1088 75.0852 17.795 64.8233 14.5015C54.5614 11.208 50.2592 24.6579 49.3909 31.7946M71.7196 40.354L60.5552 36.0743M49.3909 31.7946L60.5552 36.0743M49.3909 31.7946L39.2732 27.9161M60.5552 36.0743C64.455 26.1612 69.9543 5.6408 60.7532 2.86375C51.552 0.0867088 42.5993 18.4082 39.2732 27.9161" stroke="#FFAA4C" stroke-width="2" stroke-linecap="round" stroke-linejoin="round"/>
</g>
</svg>
