<svg width="202" height="83" viewBox="0 0 202 83" fill="none" xmlns="http://www.w3.org/2000/svg">
<path opacity="0.7" d="M130.231 81.6727H156.847" stroke="#2FDBBC" stroke-width="159.698" stroke-linecap="round"/>
<path d="M162.382 47.0093C161.016 51.5119 151.04 56.8447 144.908 53.8415" stroke="black" stroke-width="2.66164" stroke-linecap="round" stroke-linejoin="round"/>
<circle cx="126.904" cy="42.4136" r="3.32705" fill="black"/>
<circle cx="154.851" cy="37.0904" r="3.32705" fill="black"/>
<path d="M21.7434 39.7626C42.1213 39.7984 41.5421 53.5693 19.2971 48.272C25.8083 50.0894 35.713 52.1707 32.6777 57.2735C29.6424 62.3764 17.9465 56.938 17.9465 56.938C26.2043 61.4416 28.3608 64.8508 25.5115 67.3226C24.2659 68.4031 22.1404 68.8265 19.6717 68.6304M78.3044 66.3366C51.6698 79.1376 45.1523 59.1578 43.0648 49.5569C40.9774 39.956 48.2297 12.3668 38.9766 10.9842C31.5351 9.87221 29.2201 19.3013 29.8017 34.0494C25.6952 32.1331 7.25 32.1522 3.14987 48.3984C0.0149212 60.8201 11.6534 67.9933 19.6717 68.6304M73.5907 99.4494C50.1775 104.516 28.3185 96.7383 19.6717 68.6304" stroke="black" stroke-width="2.66164" stroke-linecap="round" stroke-linejoin="round"/>
</svg>
