<svg width="88" height="167" viewBox="0 0 88 167" fill="none" xmlns="http://www.w3.org/2000/svg">
<g opacity="0.7">
<path fill-rule="evenodd" clip-rule="evenodd" d="M76.688 32.6199C82.1081 31.2443 87.6028 34.5806 88.8826 40.024L109.549 127.931C110.63 132.527 108.348 137.253 104.077 139.265L59.2931 160.366C57.5868 161.169 55.6879 161.474 53.8157 161.245L32.0551 158.581C27.8635 158.068 24.4461 154.977 23.516 150.858L3.29089 61.2918C2.09709 56.0052 5.33207 50.7297 10.5853 49.3965L17.8559 47.5512L34.5661 43.3103L48.9554 39.6583L63.3447 36.0064L76.688 32.6199Z" fill="#A64CED"/>
<path d="M34.5661 43.3103C32.4391 34.9294 30.97 17.4608 42.1101 14.6335C53.2502 11.8062 60.9082 27.704 63.3447 36.0064M34.5661 43.3103L48.9554 39.6583M34.5661 43.3103L17.8559 47.5512M63.3447 36.0064L76.688 32.6199C82.1081 31.2443 87.6028 34.5806 88.8826 40.024L109.549 127.931C110.63 132.527 108.348 137.253 104.077 139.265L59.2931 160.366C57.5868 161.169 55.6879 161.474 53.8157 161.245L32.0551 158.581C27.8635 158.068 24.4461 154.977 23.516 150.858L3.29089 61.2918C2.09709 56.0052 5.33208 50.7297 10.5853 49.3965L17.8559 47.5512M63.3447 36.0064L48.9554 39.6583M48.9554 39.6583C44.9857 26.6832 33.9216 1.49816 21.4224 4.55909C8.92315 7.62003 13.8367 34.4959 17.8559 47.5512" stroke="#A64CED" stroke-width="2" stroke-linecap="round" stroke-linejoin="round"/>
<path d="M55.029 150.066L49.4821 130.134M32.8411 70.3399L43.9351 110.203" stroke="white" stroke-width="2" stroke-linecap="round" stroke-linejoin="round"/>
</g>
</svg>
