<svg width="157" height="57" viewBox="0 0 157 57" fill="none" xmlns="http://www.w3.org/2000/svg">
<path d="M60.2756 42.721C58.9929 42.721 57.8336 42.4496 56.7976 41.907C55.7616 41.3643 54.9352 40.6243 54.3186 39.687C53.7019 38.7496 53.3689 37.7013 53.3196 36.542V30.178C53.3689 29.0186 53.7019 27.9826 54.3186 27.07C54.9599 26.1326 55.7986 25.405 56.8346 24.887C57.8706 24.369 59.0176 24.11 60.2756 24.11C61.9282 24.11 63.4082 24.517 64.7156 25.331C66.0229 26.145 67.0466 27.255 67.7866 28.661C68.5512 30.067 68.9336 31.658 68.9336 33.434C68.9336 35.1853 68.5512 36.764 67.7866 38.17C67.0466 39.576 66.0229 40.686 64.7156 41.5C63.4082 42.314 61.9282 42.721 60.2756 42.721ZM59.4616 38.244C60.3496 38.244 61.1266 38.0466 61.7926 37.652C62.4832 37.2326 63.0136 36.6653 63.3836 35.95C63.7782 35.21 63.9756 34.359 63.9756 33.397C63.9756 32.4596 63.7782 31.6333 63.3836 30.918C63.0136 30.178 62.4832 29.6106 61.7926 29.216C61.1019 28.7966 60.3126 28.587 59.4246 28.587C58.5366 28.587 57.7472 28.7966 57.0566 29.216C56.3906 29.6106 55.8602 30.178 55.4656 30.918C55.0956 31.6333 54.9106 32.4596 54.9106 33.397C54.9106 34.359 55.0956 35.21 55.4656 35.95C55.8602 36.6653 56.4029 37.2326 57.0936 37.652C57.7842 38.0466 58.5736 38.244 59.4616 38.244ZM50.3596 42.351V15.6H55.2066V28.883L54.3926 33.175L55.1696 37.541V42.351H50.3596ZM79.7335 42.721C78.1549 42.721 76.7489 42.388 75.5155 41.722C74.3069 41.056 73.3572 40.131 72.6665 38.947C71.9759 37.763 71.6305 36.394 71.6305 34.84V24.48H76.5145V34.729C76.5145 35.469 76.6379 36.1103 76.8845 36.653C77.1312 37.171 77.5012 37.5656 77.9945 37.837C78.4879 38.1083 79.0675 38.244 79.7335 38.244C80.7449 38.244 81.5342 37.9356 82.1015 37.319C82.6689 36.7023 82.9525 35.839 82.9525 34.729V24.48H87.7995V34.84C87.7995 36.4186 87.4542 37.8 86.7635 38.984C86.0975 40.168 85.1479 41.093 83.9145 41.759C82.7059 42.4003 81.3122 42.721 79.7335 42.721ZM99.2074 42.721C97.5547 42.721 96.0747 42.314 94.7674 41.5C93.46 40.686 92.424 39.576 91.6594 38.17C90.9194 36.764 90.5494 35.1853 90.5494 33.434C90.5494 31.658 90.9194 30.067 91.6594 28.661C92.424 27.255 93.4477 26.145 94.7304 25.331C96.0377 24.517 97.53 24.11 99.2074 24.11C100.49 24.11 101.637 24.369 102.648 24.887C103.684 25.405 104.511 26.1326 105.127 27.07C105.769 27.9826 106.114 29.0186 106.163 30.178V36.542C106.114 37.7013 105.781 38.7496 105.164 39.687C104.548 40.6243 103.721 41.3643 102.685 41.907C101.649 42.4496 100.49 42.721 99.2074 42.721ZM100.021 38.244C100.934 38.244 101.723 38.0466 102.389 37.652C103.08 37.2326 103.61 36.6653 103.98 35.95C104.375 35.21 104.572 34.359 104.572 33.397C104.572 32.4596 104.375 31.6333 103.98 30.918C103.61 30.178 103.08 29.6106 102.389 29.216C101.723 28.7966 100.946 28.587 100.058 28.587C99.1457 28.587 98.344 28.7966 97.6534 29.216C96.9874 29.6353 96.457 30.2026 96.0624 30.918C95.6924 31.6333 95.5074 32.4596 95.5074 33.397C95.5074 34.359 95.6924 35.21 96.0624 35.95C96.457 36.6653 96.9997 37.2326 97.6904 37.652C98.381 38.0466 99.158 38.244 100.021 38.244ZM109.123 42.351H104.313V37.541L105.09 33.175L104.276 28.883V15.6H109.123V42.351ZM119.553 42.758C118.542 42.758 117.543 42.6223 116.556 42.351C115.594 42.0796 114.706 41.7096 113.892 41.241C113.078 40.7476 112.375 40.1556 111.783 39.465L114.669 36.542C115.286 37.2326 116.001 37.7506 116.815 38.096C117.629 38.4413 118.53 38.614 119.516 38.614C120.306 38.614 120.898 38.503 121.292 38.281C121.712 38.059 121.921 37.726 121.921 37.282C121.921 36.7886 121.699 36.4063 121.255 36.135C120.836 35.8636 120.281 35.6416 119.59 35.469C118.9 35.2716 118.172 35.062 117.407 34.84C116.667 34.5933 115.952 34.285 115.261 33.915C114.571 33.5203 114.003 32.99 113.559 32.324C113.14 31.6333 112.93 30.7453 112.93 29.66C112.93 28.5253 113.202 27.5386 113.744 26.7C114.312 25.8613 115.113 25.2076 116.149 24.739C117.185 24.2703 118.406 24.036 119.812 24.036C121.292 24.036 122.624 24.295 123.808 24.813C125.017 25.331 126.016 26.108 126.805 27.144L123.882 30.067C123.34 29.401 122.723 28.92 122.032 28.624C121.366 28.328 120.639 28.18 119.849 28.18C119.134 28.18 118.579 28.291 118.184 28.513C117.814 28.735 117.629 29.0433 117.629 29.438C117.629 29.882 117.839 30.2273 118.258 30.474C118.702 30.7206 119.27 30.9426 119.96 31.14C120.651 31.3126 121.366 31.5223 122.106 31.769C122.871 31.991 123.586 32.3116 124.252 32.731C124.943 33.1503 125.498 33.7053 125.917 34.396C126.361 35.0866 126.583 35.9746 126.583 37.06C126.583 38.8113 125.954 40.205 124.696 41.241C123.438 42.2523 121.724 42.758 119.553 42.758ZM135.994 42.758C134.982 42.758 133.983 42.6223 132.997 42.351C132.035 42.0796 131.147 41.7096 130.333 41.241C129.519 40.7476 128.816 40.1556 128.224 39.465L131.11 36.542C131.726 37.2326 132.442 37.7506 133.256 38.096C134.07 38.4413 134.97 38.614 135.957 38.614C136.746 38.614 137.338 38.503 137.733 38.281C138.152 38.059 138.362 37.726 138.362 37.282C138.362 36.7886 138.14 36.4063 137.696 36.135C137.276 35.8636 136.721 35.6416 136.031 35.469C135.34 35.2716 134.612 35.062 133.848 34.84C133.108 34.5933 132.392 34.285 131.702 33.915C131.011 33.5203 130.444 32.99 130 32.324C129.58 31.6333 129.371 30.7453 129.371 29.66C129.371 28.5253 129.642 27.5386 130.185 26.7C130.752 25.8613 131.554 25.2076 132.59 24.739C133.626 24.2703 134.847 24.036 136.253 24.036C137.733 24.036 139.065 24.295 140.249 24.813C141.457 25.331 142.456 26.108 143.246 27.144L140.323 30.067C139.78 29.401 139.163 28.92 138.473 28.624C137.807 28.328 137.079 28.18 136.29 28.18C135.574 28.18 135.019 28.291 134.625 28.513C134.255 28.735 134.07 29.0433 134.07 29.438C134.07 29.882 134.279 30.2273 134.699 30.474C135.143 30.7206 135.71 30.9426 136.401 31.14C137.091 31.3126 137.807 31.5223 138.547 31.769C139.311 31.991 140.027 32.3116 140.693 32.731C141.383 33.1503 141.938 33.7053 142.358 34.396C142.802 35.0866 143.024 35.9746 143.024 37.06C143.024 38.8113 142.395 40.205 141.137 41.241C139.879 42.2523 138.164 42.758 135.994 42.758Z" fill="white"/>
<path opacity="0.7" d="M25.3803 29.2532L22.1351 29.297C18.2732 29.3492 15.1003 26.2608 15.0481 22.3989V22.3989C14.9959 18.5371 18.0843 15.3641 21.9462 15.3119L37.9886 15.0952" stroke="#FFAA4C" stroke-width="8.44412" stroke-linecap="round"/>
<path opacity="0.7" d="M36.571 43.4025L20.5201 43.3593C16.6618 43.3489 13.5425 40.2127 13.5529 36.3545V36.3545C13.5633 32.5038 16.6876 29.3876 20.5382 29.3873L25.5064 29.3868" stroke="#2FDBBC" stroke-width="8.44412" stroke-linecap="round"/>
<path opacity="0.7" d="M36.6739 43.2687L26.426 30.8077C25.5017 29.6838 25.5611 28.0471 26.5643 26.9931L37.9158 15.068" stroke="#954CED" stroke-width="8.44412" stroke-linecap="round"/>
</svg>
